<svg xmlns="http://www.w3.org/2000/svg" xmlns:xlink="http://www.w3.org/1999/xlink" width="500"
    zoomAndPan="magnify" viewBox="0 0 375 374.999991" height="500"
    preserveAspectRatio="xMidYMid meet" version="1.0">
    <defs>
        <g />
        <clipPath id="df2d2a8f8f">
            <path d="M 146 91 L 230 91 L 230 173.457031 L 146 173.457031 Z M 146 91 "
                clip-rule="nonzero" />
        </clipPath>
        <clipPath id="84409367c2">
            <path
                d="M 145.730469 90.207031 L 230.480469 90.207031 L 230.480469 173.457031 L 145.730469 173.457031 Z M 145.730469 90.207031 "
                clip-rule="nonzero" />
        </clipPath>
    </defs>
    <g clip-path="url(#df2d2a8f8f)">
        <path fill="#ffffff"
            d="M 229.078125 147.757812 L 188.554688 91.496094 C 188.46875 91.367188 188.339844 91.324219 188.214844 91.324219 L 177.105469 91.109375 C 177.066406 91.109375 177.023438 91.109375 176.980469 91.152344 C 176.894531 91.195312 176.851562 91.195312 176.851562 91.238281 C 176.808594 91.28125 176.765625 91.324219 176.765625 91.367188 L 176.722656 91.410156 L 146.921875 162.242188 C 146.878906 162.371094 146.878906 162.542969 146.964844 162.671875 L 154.039062 172.46875 C 154.082031 172.511719 154.125 172.511719 154.125 172.554688 C 154.167969 172.554688 154.167969 172.554688 154.210938 172.597656 L 154.296875 172.597656 L 154.296875 173.027344 L 154.339844 172.597656 L 187.097656 166.28125 L 190.914062 164.648438 L 154.980469 171.523438 L 178.351562 112.214844 L 184.695312 121.023438 L 171.746094 151.839844 L 167.503906 161.210938 C 167.417969 161.382812 167.460938 161.554688 167.546875 161.683594 C 167.632812 161.8125 167.800781 161.855469 167.972656 161.855469 L 227.917969 148.660156 L 227.703125 149.089844 L 227.832031 149.046875 L 228.949219 148.574219 L 229.164062 148.101562 L 229.164062 147.972656 C 229.164062 147.929688 229.164062 147.929688 229.121094 147.886719 Z M 178.609375 111.09375 C 178.523438 110.964844 178.394531 110.921875 178.265625 110.921875 C 178.050781 110.964844 177.921875 111.050781 177.878906 111.183594 L 154.210938 171.222656 L 147.820312 162.371094 L 147.90625 162.15625 L 177.234375 92.441406 L 212.355469 141.179688 L 202.105469 143.671875 Z M 185.296875 121.839844 L 201.164062 143.886719 L 173.164062 150.679688 Z M 168.617188 160.777344 L 172.734375 151.710938 L 172.949219 151.667969 L 213.125 141.910156 C 213.253906 141.867188 213.382812 141.78125 213.425781 141.652344 C 213.46875 141.523438 213.46875 141.351562 213.382812 141.265625 L 177.964844 92.011719 L 187.957031 92.226562 L 188.128906 92.355469 L 228.003906 147.714844 Z M 168.617188 160.777344 "
            fill-opacity="1" fill-rule="nonzero" />
    </g>
    <path fill="#ffffff"
        d="M 212.355469 141.179688 L 177.234375 92.441406 L 147.90625 162.113281 L 147.820312 162.328125 L 154.210938 171.179688 L 177.878906 111.183594 C 177.921875 111.050781 178.050781 110.921875 178.265625 110.921875 C 178.394531 110.921875 178.523438 111.007812 178.609375 111.09375 L 202.0625 143.671875 Z M 178.09375 110.019531 C 177.621094 110.0625 177.191406 110.40625 177.023438 110.835938 L 153.953125 169.332031 L 148.851562 162.242188 L 177.40625 94.246094 L 210.808594 140.621094 L 202.449219 142.640625 L 179.335938 110.535156 C 179.078125 110.148438 178.609375 109.933594 178.09375 110.019531 Z M 178.09375 110.019531 "
        fill-opacity="1" fill-rule="nonzero" />
    <g clip-path="url(#84409367c2)">
        <path fill="#ffffff"
            d="M 230.0625 148.058594 L 230.0625 147.800781 C 230.0625 147.714844 230.019531 147.628906 229.976562 147.542969 L 229.933594 147.457031 C 229.890625 147.414062 229.890625 147.328125 229.847656 147.328125 L 189.285156 90.980469 C 189.027344 90.636719 188.640625 90.421875 188.214844 90.421875 L 177.105469 90.207031 L 177.066406 90.207031 C 176.9375 90.207031 176.808594 90.25 176.636719 90.292969 L 176.550781 90.335938 C 176.421875 90.378906 176.335938 90.464844 176.25 90.550781 L 176.164062 90.59375 C 176.078125 90.679688 175.992188 90.808594 175.949219 90.894531 L 146.0625 161.898438 C 145.890625 162.328125 145.933594 162.84375 146.191406 163.1875 L 153.265625 172.941406 C 153.308594 173.027344 153.394531 173.070312 153.523438 173.199219 C 153.609375 173.242188 153.652344 173.285156 153.738281 173.328125 L 153.78125 173.371094 C 153.867188 173.414062 153.953125 173.457031 154.167969 173.457031 L 154.46875 173.457031 L 187.3125 167.140625 L 223.503906 160.21875 C 223.589844 160.21875 223.671875 160.175781 223.757812 160.132812 C 224.058594 160.003906 224.273438 159.789062 224.445312 159.488281 L 229.589844 149.21875 L 230.191406 147.972656 Z M 223.632812 159.101562 C 223.589844 159.1875 223.503906 159.273438 223.417969 159.316406 C 223.375 159.316406 223.375 159.359375 223.332031 159.359375 L 191.34375 165.507812 L 195.160156 163.875 L 222.730469 158.542969 L 222.945312 158.5 L 227.0625 150.292969 L 228.304688 149.777344 Z M 166.816406 162.242188 C 167.117188 162.628906 167.632812 162.800781 168.144531 162.714844 L 226.246094 149.949219 L 226.160156 150.121094 L 222.34375 157.726562 L 199.105469 162.199219 L 156.441406 170.363281 L 178.609375 114.105469 L 183.667969 121.152344 L 170.890625 151.496094 L 166.644531 160.820312 C 166.429688 161.296875 166.515625 161.8125 166.816406 162.242188 Z M 229.164062 148.101562 L 228.949219 148.574219 L 227.832031 149.046875 L 227.703125 149.089844 L 227.917969 148.660156 L 167.972656 161.8125 C 167.800781 161.855469 167.632812 161.769531 167.546875 161.640625 C 167.460938 161.511719 167.417969 161.339844 167.503906 161.167969 L 171.746094 151.796875 L 184.695312 120.980469 L 178.394531 112.257812 L 154.980469 171.523438 L 190.914062 164.648438 L 187.097656 166.28125 L 154.339844 172.554688 L 154.296875 172.984375 L 154.296875 172.554688 L 154.210938 172.554688 C 154.167969 172.554688 154.167969 172.554688 154.125 172.511719 C 154.082031 172.511719 154.082031 172.46875 154.039062 172.425781 L 146.964844 162.671875 C 146.878906 162.542969 146.835938 162.371094 146.921875 162.242188 L 176.722656 91.410156 L 176.765625 91.367188 C 176.765625 91.324219 176.808594 91.28125 176.851562 91.238281 C 176.894531 91.195312 176.9375 91.195312 176.980469 91.152344 C 177.023438 91.152344 177.066406 91.109375 177.105469 91.109375 L 188.214844 91.324219 C 188.339844 91.324219 188.46875 91.410156 188.554688 91.496094 L 229.078125 147.757812 L 229.121094 147.84375 C 229.121094 147.886719 229.164062 147.929688 229.164062 147.929688 Z M 229.804688 148.1875 L 229.589844 148.144531 L 229.890625 148.144531 Z M 229.804688 148.1875 "
            fill-opacity="1" fill-rule="nonzero" />
    </g>
    <path fill="#ffffff"
        d="M 185.296875 121.839844 L 173.164062 150.679688 L 201.164062 143.886719 Z M 185.511719 123.6875 L 199.660156 143.328125 L 174.707031 149.390625 Z M 185.511719 123.6875 "
        fill-opacity="1" fill-rule="nonzero" />
    <path fill="#ffffff"
        d="M 187.957031 92.183594 L 177.964844 92.011719 L 213.382812 141.222656 C 213.46875 141.351562 213.46875 141.480469 213.425781 141.609375 C 213.382812 141.738281 213.253906 141.867188 213.125 141.867188 L 172.992188 151.625 L 172.777344 151.667969 L 168.660156 160.734375 L 228.003906 147.714844 L 188.128906 92.355469 Z M 170.203125 159.488281 L 173.378906 152.527344 L 173.417969 152.441406 L 213.382812 142.726562 C 213.8125 142.597656 214.15625 142.296875 214.328125 141.910156 C 214.496094 141.480469 214.410156 141.007812 214.15625 140.664062 L 179.765625 92.957031 L 187.484375 93.128906 L 226.417969 147.199219 Z M 170.203125 159.488281 "
        fill-opacity="1" fill-rule="nonzero" />
    <path fill="#ffffff"
        d="M 222.988281 158.5 L 222.730469 158.542969 L 195.160156 163.832031 L 191.34375 165.464844 L 223.332031 159.316406 C 223.375 159.316406 223.375 159.316406 223.417969 159.273438 C 223.503906 159.230469 223.589844 159.144531 223.632812 159.058594 L 228.304688 149.777344 L 227.0625 150.292969 Z M 222.988281 158.5 "
        fill-opacity="1" fill-rule="nonzero" />
    <g fill="#ffffff" fill-opacity="1">
        <g transform="translate(155.568522, 214.791432)">
            <g>
                <path
                    d="M 6.796875 -4.515625 C 6.335938 -3.941406 5.800781 -3.351562 5.1875 -2.75 C 4.582031 -2.15625 3.890625 -1.554688 3.109375 -0.953125 L 1.53125 -2.96875 C 2.320312 -3.5625 3.007812 -4.160156 3.59375 -4.765625 C 4.175781 -5.378906 4.679688 -5.953125 5.109375 -6.484375 C 5.535156 -7.015625 5.878906 -7.488281 6.140625 -7.90625 C 6.398438 -8.320312 6.597656 -8.640625 6.734375 -8.859375 L 4.4375 -8.859375 L 4.4375 -19.765625 L 26.265625 -19.765625 L 26.265625 -20.453125 L 28.84375 -20.453125 L 28.84375 -11.796875 C 28.84375 -10.960938 28.5625 -10.265625 28 -9.703125 C 27.4375 -9.140625 26.738281 -8.859375 25.90625 -8.859375 L 7.515625 -8.859375 L 9.21875 -8.03125 C 9.195312 -8.007812 9.140625 -7.914062 9.046875 -7.75 C 8.960938 -7.59375 8.832031 -7.375 8.65625 -7.09375 L 27.40625 -7.09375 L 27.40625 -7.78125 L 30 -7.78125 L 30 1.765625 C 30 2.566406 29.710938 3.253906 29.140625 3.828125 C 28.578125 4.410156 27.878906 4.703125 27.046875 4.703125 L 24.375 4.703125 L 24.375 2.125 L 27.046875 2.125 C 27.285156 2.125 27.40625 2.003906 27.40625 1.765625 L 27.40625 -4.515625 L 23.921875 -4.515625 C 23.703125 -4.117188 23.367188 -3.5625 22.921875 -2.84375 C 22.472656 -2.125 21.878906 -1.332031 21.140625 -0.46875 C 20.398438 0.382812 19.507812 1.289062 18.46875 2.25 C 17.4375 3.207031 16.222656 4.125 14.828125 5 L 13.453125 2.84375 C 14.441406 2.207031 15.332031 1.550781 16.125 0.875 C 16.914062 0.207031 17.617188 -0.445312 18.234375 -1.09375 C 18.859375 -1.738281 19.390625 -2.351562 19.828125 -2.9375 C 20.265625 -3.53125 20.632812 -4.054688 20.9375 -4.515625 L 15.78125 -4.515625 C 15.539062 -4.222656 15.09375 -3.726562 14.4375 -3.03125 C 13.78125 -2.34375 12.953125 -1.554688 11.953125 -0.671875 C 10.953125 0.210938 9.785156 1.144531 8.453125 2.125 C 7.128906 3.101562 5.671875 4.019531 4.078125 4.875 L 2.875 2.609375 C 3.914062 2.046875 4.90625 1.445312 5.84375 0.8125 C 6.78125 0.1875 7.644531 -0.441406 8.4375 -1.078125 C 9.238281 -1.710938 9.957031 -2.320312 10.59375 -2.90625 C 11.238281 -3.5 11.789062 -4.035156 12.25 -4.515625 Z M 25.90625 -11.4375 C 26.144531 -11.4375 26.265625 -11.554688 26.265625 -11.796875 L 26.265625 -13.0625 L 7.03125 -13.0625 L 7.03125 -11.4375 Z M 7.03125 -17.1875 L 7.03125 -15.65625 L 26.265625 -15.65625 L 26.265625 -17.1875 Z M 7.03125 -17.1875 " />
            </g>
        </g>
    </g>
    <g fill="#ffffff" fill-opacity="1">
        <g transform="translate(188.228154, 214.791432)">
            <g>
                <path
                    d="M 15.453125 4.21875 L 14.3125 3.65625 C 14.3125 3.632812 14.4375 3.34375 14.6875 2.78125 C 14.9375 2.226562 15.234375 1.503906 15.578125 0.609375 C 15.929688 -0.273438 16.285156 -1.289062 16.640625 -2.4375 C 17.003906 -3.582031 17.296875 -4.753906 17.515625 -5.953125 L 14.640625 -5.953125 L 14.640625 -8.53125 L 17.84375 -8.53125 L 17.84375 -17.421875 L 15.390625 -17.421875 L 15.390625 -20 L 30.421875 -20 L 30.421875 -17.421875 L 28.0625 -17.421875 L 28.0625 -8.53125 L 30.9375 -8.53125 L 30.9375 -5.953125 L 28.0625 -5.953125 L 28.0625 4.609375 L 25.484375 4.609375 L 25.484375 -5.953125 L 20.125 -5.953125 C 19.90625 -4.617188 19.601562 -3.328125 19.21875 -2.078125 C 18.84375 -0.828125 18.46875 0.289062 18.09375 1.28125 C 17.726562 2.28125 17.394531 3.09375 17.09375 3.71875 C 16.800781 4.351562 16.644531 4.703125 16.625 4.765625 Z M 20.421875 -9.28125 C 20.421875 -9.144531 20.421875 -9.007812 20.421875 -8.875 C 20.421875 -8.75 20.410156 -8.632812 20.390625 -8.53125 L 25.484375 -8.53125 L 25.484375 -17.421875 L 20.421875 -17.421875 Z M 1.40625 -5.90625 C 2.144531 -6.84375 2.757812 -7.8125 3.25 -8.8125 C 3.738281 -9.820312 4.140625 -10.765625 4.453125 -11.640625 C 4.773438 -12.523438 5.003906 -13.28125 5.140625 -13.90625 C 5.285156 -14.539062 5.367188 -14.945312 5.390625 -15.125 L 5.390625 -17.21875 L 2.9375 -17.21875 L 2.9375 -19.765625 L 14.078125 -19.765625 L 14.078125 -17.21875 L 7.96875 -17.21875 L 7.96875 -14.828125 C 7.945312 -14.742188 7.835938 -14.253906 7.640625 -13.359375 C 7.441406 -12.460938 7.09375 -11.363281 6.59375 -10.0625 L 10.65625 -10.0625 L 10.65625 -10.515625 L 13.234375 -10.515625 L 13.234375 1.765625 C 13.234375 2.585938 12.941406 3.28125 12.359375 3.84375 C 11.785156 4.414062 11.097656 4.703125 10.296875 4.703125 L 4.546875 4.703125 L 4.546875 -5.90625 C 4.191406 -5.34375 3.804688 -4.8125 3.390625 -4.3125 Z M 7.125 2.125 L 10.296875 2.125 C 10.535156 2.125 10.65625 2.003906 10.65625 1.765625 L 10.65625 -7.484375 L 7.125 -7.484375 Z M 7.125 2.125 " />
            </g>
        </g>
    </g>
    <g fill="#ffffff" fill-opacity="1">
        <g transform="translate(115.986024, 246.682295)">
            <g />
        </g>
    </g>
    <g fill="#ffffff" fill-opacity="1">
        <g transform="translate(120.78085, 246.682295)">
            <g>
                <path
                    d="M 7.984375 -11.578125 L 7.984375 -10.046875 L 2.609375 -10.046875 L 2.609375 -6.890625 L 7.390625 -6.890625 L 7.390625 -5.3125 L 2.609375 -5.3125 L 2.609375 -1.578125 L 7.984375 -1.578125 L 7.984375 0 L 0.921875 0 L 0.921875 -11.578125 Z M 7.984375 -11.578125 " />
            </g>
        </g>
    </g>
    <g fill="#ffffff" fill-opacity="1">
        <g transform="translate(130.264287, 246.682295)">
            <g>
                <path
                    d="M 2.046875 0 L 0.171875 0 L 5 -11.578125 L 6.875 -11.578125 L 11.6875 0 L 9.84375 0 L 8.328125 -3.625 L 3.546875 -3.625 Z M 4.203125 -5.1875 L 7.671875 -5.1875 L 5.9375 -9.375 Z M 4.203125 -5.1875 " />
            </g>
        </g>
    </g>
    <g fill="#ffffff" fill-opacity="1">
        <g transform="translate(142.734605, 246.682295)">
            <g>
                <path
                    d="M 8.640625 -3.25 C 8.640625 -2.757812 8.539062 -2.300781 8.34375 -1.875 C 8.144531 -1.457031 7.859375 -1.09375 7.484375 -0.78125 C 6.734375 -0.15625 5.769531 0.15625 4.59375 0.15625 C 3.675781 0.15625 2.847656 -0.03125 2.109375 -0.40625 C 1.367188 -0.78125 0.820312 -1.28125 0.46875 -1.90625 L 1.921875 -2.65625 C 2.140625 -2.269531 2.484375 -1.96875 2.953125 -1.75 C 3.429688 -1.539062 3.976562 -1.4375 4.59375 -1.4375 C 6.164062 -1.4375 6.953125 -2.039062 6.953125 -3.25 C 6.953125 -3.476562 6.910156 -3.671875 6.828125 -3.828125 C 6.742188 -3.992188 6.625 -4.148438 6.46875 -4.296875 C 6.070312 -4.617188 5.367188 -4.910156 4.359375 -5.171875 C 3.742188 -5.328125 3.222656 -5.492188 2.796875 -5.671875 C 2.378906 -5.859375 2.03125 -6.078125 1.75 -6.328125 C 1.0625 -6.890625 0.71875 -7.628906 0.71875 -8.546875 C 0.71875 -8.992188 0.804688 -9.414062 0.984375 -9.8125 C 1.160156 -10.21875 1.414062 -10.566406 1.75 -10.859375 C 2.082031 -11.148438 2.472656 -11.367188 2.921875 -11.515625 C 3.378906 -11.660156 3.878906 -11.734375 4.421875 -11.734375 C 5.210938 -11.734375 5.941406 -11.582031 6.609375 -11.28125 C 7.285156 -10.976562 7.796875 -10.550781 8.140625 -10 L 6.828125 -9.171875 C 6.515625 -9.554688 6.148438 -9.828125 5.734375 -9.984375 C 5.316406 -10.140625 4.878906 -10.21875 4.421875 -10.21875 C 4.097656 -10.21875 3.800781 -10.160156 3.53125 -10.046875 C 3.257812 -9.941406 3.03125 -9.816406 2.84375 -9.671875 C 2.6875 -9.535156 2.570312 -9.375 2.5 -9.1875 C 2.4375 -9 2.40625 -8.796875 2.40625 -8.578125 C 2.40625 -8.429688 2.425781 -8.285156 2.46875 -8.140625 C 2.507812 -7.992188 2.609375 -7.84375 2.765625 -7.6875 C 2.929688 -7.53125 3.171875 -7.375 3.484375 -7.21875 C 3.804688 -7.070312 4.238281 -6.929688 4.78125 -6.796875 C 5.4375 -6.628906 5.988281 -6.445312 6.4375 -6.25 C 6.882812 -6.0625 7.257812 -5.835938 7.5625 -5.578125 C 8.28125 -4.992188 8.640625 -4.21875 8.640625 -3.25 Z M 8.640625 -3.25 " />
            </g>
        </g>
    </g>
    <g fill="#ffffff" fill-opacity="1">
        <g transform="translate(152.724014, 246.682295)">
            <g>
                <path
                    d="M 4.234375 -5.421875 L 0.140625 -11.578125 L 2.1875 -11.578125 L 5.078125 -7.234375 L 7.96875 -11.578125 L 10.03125 -11.578125 L 5.9375 -5.421875 L 5.9375 0 L 4.234375 0 Z M 4.234375 -5.421875 " />
            </g>
        </g>
    </g>
    <g fill="#ffffff" fill-opacity="1">
        <g transform="translate(163.480557, 246.682295)">
            <g />
        </g>
    </g>
    <g fill="#ffffff" fill-opacity="1">
        <g transform="translate(168.263307, 246.682295)">
            <g>
                <path
                    d="M 10.46875 0 L 8.328125 0 L 4.6875 -5 L 2.65625 -5 L 2.65625 0 L 0.953125 0 L 0.953125 -11.578125 L 5.65625 -11.578125 C 6.101562 -11.578125 6.53125 -11.488281 6.9375 -11.3125 C 7.351562 -11.132812 7.707031 -10.898438 8 -10.609375 C 8.300781 -10.316406 8.539062 -9.972656 8.71875 -9.578125 C 8.894531 -9.179688 8.984375 -8.753906 8.984375 -8.296875 C 8.984375 -7.910156 8.921875 -7.546875 8.796875 -7.203125 C 8.679688 -6.867188 8.515625 -6.566406 8.296875 -6.296875 C 8.085938 -6.023438 7.835938 -5.789062 7.546875 -5.59375 C 7.253906 -5.394531 6.929688 -5.242188 6.578125 -5.140625 Z M 5.65625 -6.59375 C 5.882812 -6.59375 6.097656 -6.640625 6.296875 -6.734375 C 6.503906 -6.828125 6.679688 -6.945312 6.828125 -7.09375 C 6.972656 -7.25 7.085938 -7.429688 7.171875 -7.640625 C 7.265625 -7.859375 7.3125 -8.085938 7.3125 -8.328125 C 7.3125 -8.566406 7.265625 -8.789062 7.171875 -9 C 7.085938 -9.207031 6.972656 -9.390625 6.828125 -9.546875 C 6.679688 -9.703125 6.503906 -9.828125 6.296875 -9.921875 C 6.097656 -10.015625 5.882812 -10.0625 5.65625 -10.0625 L 2.65625 -10.0625 L 2.65625 -6.578125 Z M 5.65625 -6.59375 " />
            </g>
        </g>
    </g>
    <g fill="#ffffff" fill-opacity="1">
        <g transform="translate(179.493172, 246.682295)">
            <g>
                <path
                    d="M 7.984375 -11.578125 L 7.984375 -10.046875 L 2.609375 -10.046875 L 2.609375 -6.890625 L 7.390625 -6.890625 L 7.390625 -5.3125 L 2.609375 -5.3125 L 2.609375 -1.578125 L 7.984375 -1.578125 L 7.984375 0 L 0.921875 0 L 0.921875 -11.578125 Z M 7.984375 -11.578125 " />
            </g>
        </g>
    </g>
    <g fill="#ffffff" fill-opacity="1">
        <g transform="translate(188.976611, 246.682295)">
            <g>
                <path
                    d="M 8.640625 -3.25 C 8.640625 -2.757812 8.539062 -2.300781 8.34375 -1.875 C 8.144531 -1.457031 7.859375 -1.09375 7.484375 -0.78125 C 6.734375 -0.15625 5.769531 0.15625 4.59375 0.15625 C 3.675781 0.15625 2.847656 -0.03125 2.109375 -0.40625 C 1.367188 -0.78125 0.820312 -1.28125 0.46875 -1.90625 L 1.921875 -2.65625 C 2.140625 -2.269531 2.484375 -1.96875 2.953125 -1.75 C 3.429688 -1.539062 3.976562 -1.4375 4.59375 -1.4375 C 6.164062 -1.4375 6.953125 -2.039062 6.953125 -3.25 C 6.953125 -3.476562 6.910156 -3.671875 6.828125 -3.828125 C 6.742188 -3.992188 6.625 -4.148438 6.46875 -4.296875 C 6.070312 -4.617188 5.367188 -4.910156 4.359375 -5.171875 C 3.742188 -5.328125 3.222656 -5.492188 2.796875 -5.671875 C 2.378906 -5.859375 2.03125 -6.078125 1.75 -6.328125 C 1.0625 -6.890625 0.71875 -7.628906 0.71875 -8.546875 C 0.71875 -8.992188 0.804688 -9.414062 0.984375 -9.8125 C 1.160156 -10.21875 1.414062 -10.566406 1.75 -10.859375 C 2.082031 -11.148438 2.472656 -11.367188 2.921875 -11.515625 C 3.378906 -11.660156 3.878906 -11.734375 4.421875 -11.734375 C 5.210938 -11.734375 5.941406 -11.582031 6.609375 -11.28125 C 7.285156 -10.976562 7.796875 -10.550781 8.140625 -10 L 6.828125 -9.171875 C 6.515625 -9.554688 6.148438 -9.828125 5.734375 -9.984375 C 5.316406 -10.140625 4.878906 -10.21875 4.421875 -10.21875 C 4.097656 -10.21875 3.800781 -10.160156 3.53125 -10.046875 C 3.257812 -9.941406 3.03125 -9.816406 2.84375 -9.671875 C 2.6875 -9.535156 2.570312 -9.375 2.5 -9.1875 C 2.4375 -9 2.40625 -8.796875 2.40625 -8.578125 C 2.40625 -8.429688 2.425781 -8.285156 2.46875 -8.140625 C 2.507812 -7.992188 2.609375 -7.84375 2.765625 -7.6875 C 2.929688 -7.53125 3.171875 -7.375 3.484375 -7.21875 C 3.804688 -7.070312 4.238281 -6.929688 4.78125 -6.796875 C 5.4375 -6.628906 5.988281 -6.445312 6.4375 -6.25 C 6.882812 -6.0625 7.257812 -5.835938 7.5625 -5.578125 C 8.28125 -4.992188 8.640625 -4.21875 8.640625 -3.25 Z M 8.640625 -3.25 " />
            </g>
        </g>
    </g>
    <g fill="#ffffff" fill-opacity="1">
        <g transform="translate(198.966022, 246.682295)">
            <g>
                <path
                    d="M 7.984375 -11.578125 L 7.984375 -10.046875 L 2.609375 -10.046875 L 2.609375 -6.890625 L 7.390625 -6.890625 L 7.390625 -5.3125 L 2.609375 -5.3125 L 2.609375 -1.578125 L 7.984375 -1.578125 L 7.984375 0 L 0.921875 0 L 0.921875 -11.578125 Z M 7.984375 -11.578125 " />
            </g>
        </g>
    </g>
    <g fill="#ffffff" fill-opacity="1">
        <g transform="translate(208.449461, 246.682295)">
            <g>
                <path
                    d="M 2.046875 0 L 0.171875 0 L 5 -11.578125 L 6.875 -11.578125 L 11.6875 0 L 9.84375 0 L 8.328125 -3.625 L 3.546875 -3.625 Z M 4.203125 -5.1875 L 7.671875 -5.1875 L 5.9375 -9.375 Z M 4.203125 -5.1875 " />
            </g>
        </g>
    </g>
    <g fill="#ffffff" fill-opacity="1">
        <g transform="translate(220.919781, 246.682295)">
            <g>
                <path
                    d="M 10.46875 0 L 8.328125 0 L 4.6875 -5 L 2.65625 -5 L 2.65625 0 L 0.953125 0 L 0.953125 -11.578125 L 5.65625 -11.578125 C 6.101562 -11.578125 6.53125 -11.488281 6.9375 -11.3125 C 7.351562 -11.132812 7.707031 -10.898438 8 -10.609375 C 8.300781 -10.316406 8.539062 -9.972656 8.71875 -9.578125 C 8.894531 -9.179688 8.984375 -8.753906 8.984375 -8.296875 C 8.984375 -7.910156 8.921875 -7.546875 8.796875 -7.203125 C 8.679688 -6.867188 8.515625 -6.566406 8.296875 -6.296875 C 8.085938 -6.023438 7.835938 -5.789062 7.546875 -5.59375 C 7.253906 -5.394531 6.929688 -5.242188 6.578125 -5.140625 Z M 5.65625 -6.59375 C 5.882812 -6.59375 6.097656 -6.640625 6.296875 -6.734375 C 6.503906 -6.828125 6.679688 -6.945312 6.828125 -7.09375 C 6.972656 -7.25 7.085938 -7.429688 7.171875 -7.640625 C 7.265625 -7.859375 7.3125 -8.085938 7.3125 -8.328125 C 7.3125 -8.566406 7.265625 -8.789062 7.171875 -9 C 7.085938 -9.207031 6.972656 -9.390625 6.828125 -9.546875 C 6.679688 -9.703125 6.503906 -9.828125 6.296875 -9.921875 C 6.097656 -10.015625 5.882812 -10.0625 5.65625 -10.0625 L 2.65625 -10.0625 L 2.65625 -6.578125 Z M 5.65625 -6.59375 " />
            </g>
        </g>
    </g>
    <g fill="#ffffff" fill-opacity="1">
        <g transform="translate(232.149647, 246.682295)">
            <g>
                <path
                    d="M 6.375 -1.421875 C 7 -1.421875 7.582031 -1.570312 8.125 -1.875 C 8.664062 -2.175781 9.117188 -2.582031 9.484375 -3.09375 L 10.671875 -1.9375 C 10.148438 -1.320312 9.515625 -0.816406 8.765625 -0.421875 C 8.023438 -0.0351562 7.226562 0.15625 6.375 0.15625 C 5.582031 0.15625 4.835938 0 4.140625 -0.3125 C 3.453125 -0.625 2.847656 -1.050781 2.328125 -1.59375 C 1.816406 -2.132812 1.410156 -2.765625 1.109375 -3.484375 C 0.816406 -4.210938 0.671875 -4.976562 0.671875 -5.78125 C 0.671875 -6.59375 0.816406 -7.359375 1.109375 -8.078125 C 1.410156 -8.796875 1.816406 -9.425781 2.328125 -9.96875 C 2.847656 -10.507812 3.453125 -10.9375 4.140625 -11.25 C 4.835938 -11.5625 5.582031 -11.71875 6.375 -11.71875 C 7.101562 -11.71875 7.789062 -11.570312 8.4375 -11.28125 C 9.082031 -11 9.660156 -10.625 10.171875 -10.15625 L 9.15625 -8.859375 C 8.800781 -9.242188 8.382812 -9.554688 7.90625 -9.796875 C 7.425781 -10.046875 6.914062 -10.171875 6.375 -10.171875 C 5.8125 -10.171875 5.285156 -10.050781 4.796875 -9.8125 C 4.316406 -9.582031 3.894531 -9.265625 3.53125 -8.859375 C 3.175781 -8.460938 2.894531 -8 2.6875 -7.46875 C 2.476562 -6.9375 2.375 -6.375 2.375 -5.78125 C 2.375 -5.175781 2.476562 -4.609375 2.6875 -4.078125 C 2.894531 -3.554688 3.175781 -3.097656 3.53125 -2.703125 C 3.894531 -2.304688 4.316406 -1.992188 4.796875 -1.765625 C 5.285156 -1.535156 5.8125 -1.421875 6.375 -1.421875 Z M 6.375 -1.421875 " />
            </g>
        </g>
    </g>
    <g fill="#ffffff" fill-opacity="1">
        <g transform="translate(243.869167, 246.682295)">
            <g>
                <path
                    d="M 9.109375 -11.578125 L 10.8125 -11.578125 L 10.8125 0 L 9.109375 0 L 9.109375 -5.3125 L 2.625 -5.3125 L 2.625 0 L 0.921875 0 L 0.921875 -11.578125 L 2.625 -11.578125 L 2.625 -6.890625 L 9.109375 -6.890625 Z M 9.109375 -11.578125 " />
            </g>
        </g>
    </g>
    <g fill="#ffffff" fill-opacity="1">
        <g transform="translate(256.19838, 246.682295)">
            <g />
        </g>
    </g>
</svg>